<?xml version="1.0" encoding="UTF-8"?>
<svg xmlns="http://www.w3.org/2000/svg" xmlns:xlink="http://www.w3.org/1999/xlink" width="600pt" height="599.999999pt" viewBox="0 0 600 599.999999" version="1.2">
<defs>
<clipPath id="clip1">
  <path d="M 484 67 L 587.296875 67 L 587.296875 294 L 484 294 Z M 484 67 "/>
</clipPath>
</defs>
<g id="surface1">
<path style=" stroke:none;fill-rule:nonzero;fill:rgb(98.81897%,79.219055%,64.709473%);fill-opacity:1;" d="M 122.875 216.035156 C 122.875 215.695312 130.332031 197.539062 130.886719 197.539062 C 131.445312 197.539062 146.246094 202.246094 151.589844 199.332031 C 156.933594 196.417969 163.054688 175.800781 163.054688 175.800781 C 163.054688 175.800781 167.953125 173.667969 168.175781 172.101562 C 168.398438 170.53125 163.945312 168.175781 163.167969 164.480469 C 162.386719 160.78125 160.664062 149.117188 157.242188 144.863281 C 153.816406 140.605469 123.652344 139.375 114.527344 146.546875 C 105.398438 153.71875 96.605469 210.542969 96.605469 210.542969 L 122.875 216.035156 "/>
<path style=" stroke:none;fill-rule:nonzero;fill:rgb(83.139038%,32.159424%,23.529053%);fill-opacity:1;" d="M 105.0625 204.039062 C 105.0625 204.039062 112.964844 192.609375 113.410156 189.132812 C 123.097656 186.667969 123.988281 175.6875 123.988281 175.6875 C 123.988281 175.6875 110.519531 172.101562 113.078125 162.460938 C 115.636719 152.824219 124.867188 156.523438 129.046875 169.972656 C 136.566406 167.730469 133.675781 154.167969 133.675781 154.167969 C 133.675781 154.167969 138.011719 155.289062 139.570312 154.167969 C 141.128906 153.050781 140.683594 146.214844 140.683594 146.214844 C 140.683594 146.214844 148.917969 143.074219 157.15625 145.429688 C 158.160156 138.703125 161.164062 119.988281 138.457031 121.445312 C 115.75 122.902344 93.15625 126.9375 89.148438 145.203125 C 85.140625 163.472656 99.164062 179.945312 99.164062 179.945312 C 99.164062 179.945312 96.605469 179.722656 97.71875 182.859375 C 79.796875 183.867188 68.222656 190.058594 73.5625 203.550781 C 65.4375 210.320312 59.09375 214.910156 60.875 216.480469 C 62.65625 218.050781 75.234375 215.136719 75.234375 215.136719 C 75.234375 215.136719 70.78125 221.074219 71.335938 221.527344 C 71.894531 221.972656 100.167969 220.511719 105.0625 204.039062 "/>
<path style=" stroke:none;fill-rule:nonzero;fill:rgb(87.838745%,44.709778%,19.999695%);fill-opacity:1;" d="M 122.761719 211.660156 C 122.761719 211.660156 136.007812 241.488281 136.34375 243.003906 C 136.675781 244.515625 129.496094 246.570312 129.496094 246.570312 C 129.496094 246.570312 118.382812 225.445312 122.761719 211.660156 "/>
<path style=" stroke:none;fill-rule:nonzero;fill:rgb(92.939758%,67.059326%,61.178589%);fill-opacity:1;" d="M 131.777344 245.285156 C 131.777344 245.285156 142.890625 267.8125 147.90625 270.949219 C 152.925781 274.085938 175.523438 268.238281 175.96875 267.914062 C 176.414062 267.585938 182.535156 256.742188 185.539062 258.582031 C 188.546875 260.414062 188.5 273.332031 187.132812 275.898438 C 185.761719 278.460938 161.164062 288.542969 161.164062 288.542969 L 128.242188 274.945312 L 115.304688 252.457031 L 131.777344 245.285156 "/>
<path style=" stroke:none;fill-rule:nonzero;fill:rgb(98.81897%,79.219055%,64.709473%);fill-opacity:1;" d="M 100.128906 289.175781 C 100.128906 289.175781 157.714844 258.097656 163.355469 263.324219 C 168.992188 268.558594 195.261719 326.984375 195.261719 326.984375 L 180.125 340.132812 C 180.125 340.132812 149.699219 312.039062 147.695312 299.785156 C 130.257812 306.363281 83.0625 359.707031 63.769531 356.421875 C 44.476562 353.132812 100.128906 289.175781 100.128906 289.175781 "/>
<path style=" stroke:none;fill-rule:nonzero;fill:rgb(92.549133%,91.369629%,86.268616%);fill-opacity:1;" d="M 194.667969 320.207031 C 194.667969 320.207031 173 342.375 174.1875 344.617188 C 175.375 346.855469 180.929688 345.660156 180.929688 345.660156 C 180.929688 345.660156 180.125 349.996094 181.609375 351.042969 C 183.089844 352.085938 186.949219 351.042969 186.949219 351.042969 C 186.949219 351.042969 200.160156 361.203125 201.640625 364.488281 C 203.128906 367.777344 205.503906 374.5 209.953125 374.949219 C 214.40625 375.398438 218.636719 366.808594 222.867188 363.519531 C 227.097656 360.234375 231.472656 360.082031 232.957031 357.839844 C 234.441406 355.601562 234.292969 353.132812 234.738281 352.609375 C 235.183594 352.085938 240.304688 347.304688 239.191406 344.839844 C 238.078125 342.375 232.882812 344.609375 231.179688 348.722656 C 229.46875 352.835938 214.851562 353.058594 214.183594 352.984375 C 213.515625 352.910156 200.039062 334.457031 199.738281 333.1875 C 199.445312 331.914062 201.273438 329.375 200.53125 327.804688 C 199.789062 326.238281 196.96875 326.683594 196.96875 325.710938 C 196.96875 324.742188 199.34375 317.238281 194.667969 320.207031 "/>
<path style=" stroke:none;fill-rule:nonzero;fill:rgb(92.939758%,67.059326%,61.178589%);fill-opacity:1;" d="M 68.222656 357.46875 C 68.222656 357.46875 84.867188 353.3125 125.320312 318.003906 C 143.019531 303.898438 144.800781 302.328125 144.800781 302.328125 L 158.511719 317.546875 L 180.929688 296.085938 C 180.929688 296.085938 172.105469 277.980469 169.960938 274.046875 C 163.648438 279.316406 151.480469 282.457031 151.480469 282.457031 L 143.953125 267.914062 L 118.976562 277.820312 L 68.222656 357.46875 "/>
<path style=" stroke:none;fill-rule:nonzero;fill:rgb(98.039246%,59.21936%,21.958923%);fill-opacity:1;" d="M 128.777344 249.992188 C 128.777344 249.992188 133.375 248.535156 133.671875 247.789062 C 133.96875 247.039062 123.875 216.558594 123.28125 211.476562 C 122.6875 206.394531 109.332031 199.519531 91.222656 206.546875 C 73.117188 213.566406 16.277344 268.195312 15.980469 347.871094 C 15.683594 349.847656 12.898438 356.234375 17.6875 352.988281 C 22.472656 349.738281 89.371094 297.171875 89.371094 297.171875 C 89.371094 297.171875 94.898438 272.964844 110.390625 263.328125 C 113.1875 261.761719 128.777344 249.992188 128.777344 249.992188 "/>
<path style=" stroke:none;fill-rule:nonzero;fill:rgb(87.838745%,44.709778%,19.999695%);fill-opacity:1;" d="M 103.246094 262.730469 C 103.246094 262.730469 94.601562 246.625 93.710938 245.394531 C 92.820312 244.160156 94.710938 253.574219 94.710938 253.574219 C 94.710938 253.574219 77.238281 244.949219 76.570312 245.394531 C 75.902344 245.84375 83.804688 258.285156 83.804688 258.285156 C 83.804688 258.285156 47.074219 280.585938 35.496094 310.394531 C 32.601562 313.308594 46.628906 310.394531 46.628906 310.394531 C 46.628906 310.394531 32.414062 326.324219 33.363281 334.605469 C 34.3125 342.882812 95.824219 285.136719 95.824219 285.136719 C 95.824219 285.136719 96.011719 275.621094 105.863281 266.78125 C 107.699219 263.328125 103.246094 262.730469 103.246094 262.730469 "/>
<path style=" stroke:none;fill-rule:nonzero;fill:rgb(89.019775%,60.389709%,58.81958%);fill-opacity:1;" d="M 173.664062 277.414062 C 172.824219 276.320312 172.277344 275.050781 171.609375 273.847656 C 171.253906 273.207031 170.886719 272.578125 170.460938 271.984375 C 169.980469 271.316406 169.320312 270.8125 168.835938 270.164062 C 168.523438 269.742188 168 270.355469 168.246094 270.734375 C 168.707031 271.441406 168.992188 272.378906 169.390625 273.136719 C 169.773438 273.871094 170.183594 274.589844 170.554688 275.332031 C 171.125 276.464844 171.589844 277.65625 172.378906 278.660156 C 173.082031 279.550781 174.277344 278.210938 173.664062 277.414062 "/>
<path style=" stroke:none;fill-rule:nonzero;fill:rgb(32.159424%,32.159424%,32.159424%);fill-opacity:1;" d="M 180.933594 266.296875 C 180.691406 266.449219 170.625 273.265625 170.847656 278.71875 C 171.070312 284.167969 178.308594 275.929688 180.308594 277.671875 C 182.3125 279.40625 174.855469 280.808594 176.523438 284.617188 C 178.195312 288.429688 196.671875 280.753906 198.34375 273.019531 C 200.011719 265.285156 189.449219 268.25 189.449219 268.25 C 189.449219 268.25 190.046875 264.277344 187.878906 264.054688 C 185.707031 263.828125 183.890625 264.390625 180.933594 266.296875 "/>
<path style=" stroke:none;fill-rule:nonzero;fill:rgb(92.939758%,67.059326%,61.178589%);fill-opacity:1;" d="M 180.457031 263.175781 C 180.457031 263.175781 178.121094 270.125 178.9375 271.246094 C 179.753906 272.367188 186.765625 265.425781 186.582031 262.734375 C 186.394531 260.039062 180.457031 263.175781 180.457031 263.175781 "/>
<path style=" stroke:none;fill-rule:nonzero;fill:rgb(98.81897%,79.219055%,64.709473%);fill-opacity:1;" d="M 103.246094 262.726562 C 103.246094 262.726562 139.015625 318.359375 141.984375 320.207031 C 144.949219 322.050781 181.3125 289.328125 181.3125 289.328125 C 181.3125 289.328125 187.097656 286.414062 187.097656 284.394531 C 187.097656 282.378906 192.109375 282.601562 192.554688 280.921875 C 193 279.238281 184.984375 274.867188 184.984375 274.085938 C 184.984375 273.300781 185.765625 270.496094 186.65625 269.710938 C 187.542969 268.929688 189.660156 268.480469 189.882812 267.808594 C 190.105469 267.136719 183.316406 265.675781 181.535156 266.800781 C 179.753906 267.917969 174.1875 278.675781 174.1875 278.675781 C 174.1875 278.675781 150.589844 289.996094 149.921875 289.996094 C 149.253906 289.996094 128.78125 249.988281 128.78125 249.988281 C 128.78125 249.988281 104.992188 260.894531 103.246094 262.726562 "/>
<path style=" stroke:none;fill-rule:nonzero;fill:rgb(92.939758%,67.059326%,61.178589%);fill-opacity:1;" d="M 108.070312 270.199219 C 108.070312 270.199219 116.75 266.890625 124.875 271.71875 C 133.003906 276.550781 149.949219 315.738281 149.949219 315.738281 C 149.949219 315.738281 143.855469 320.917969 141.683594 320.28125 C 139.515625 319.644531 130.945312 305.074219 130.945312 305.074219 L 108.070312 270.199219 "/>
<path style=" stroke:none;fill-rule:nonzero;fill:rgb(32.159424%,32.159424%,32.159424%);fill-opacity:1;" d="M 129.664062 320.207031 C 129.664062 320.707031 179.53125 380.105469 207.578125 379.433594 C 216.929688 376.070312 221.378906 349.820312 221.378906 349.820312 L 211.140625 347.15625 C 211.140625 347.15625 208.246094 371.363281 200.902344 372.261719 C 193.554688 373.15625 165.058594 355.226562 134.117188 318.019531 C 131.445312 317.792969 129.664062 320.207031 129.664062 320.207031 "/>
<path style=" stroke:none;fill-rule:nonzero;fill:rgb(32.159424%,32.159424%,32.159424%);fill-opacity:1;" d="M 36.386719 326.984375 C 36.386719 326.984375 17.6875 349.398438 17.6875 352.984375 C 17.6875 356.570312 24.8125 369.832031 44.847656 368.691406 C 57.871094 347.492188 36.386719 326.984375 36.386719 326.984375 "/>
<path style=" stroke:none;fill-rule:nonzero;fill:rgb(32.159424%,32.159424%,32.159424%);fill-opacity:1;" d="M 110.390625 315.972656 C 110.390625 315.972656 119.125 325.789062 125.953125 327.882812 C 132.78125 329.972656 140.941406 315.628906 140.199219 308.753906 C 139.457031 301.878906 128.304688 287.839844 128.304688 287.839844 L 110.390625 315.972656 "/>
<path style=" stroke:none;fill-rule:nonzero;fill:rgb(98.81897%,79.219055%,64.709473%);fill-opacity:1;" d="M 36.386719 326.984375 C 36.738281 326.410156 108.070312 268.707031 116.304688 271.84375 C 124.542969 274.984375 128.550781 287.757812 128.773438 289.777344 C 128.996094 291.792969 123.652344 320.933594 108.960938 315.550781 C 88.03125 346.484375 58.203125 370.140625 44.179688 368.625 C 30.152344 367.105469 34.605469 329.898438 36.386719 326.984375 "/>
<path style=" stroke:none;fill-rule:nonzero;fill:rgb(85.099792%,82.348633%,79.219055%);fill-opacity:1;" d="M 195.9375 332.132812 C 194.179688 333.628906 192.628906 335.402344 191.28125 337.28125 C 190.914062 337.792969 190.574219 338.328125 190.238281 338.859375 C 191.375 336.09375 192.515625 333.328125 193.644531 330.558594 C 193.929688 329.863281 193.117188 329.078125 192.53125 329.703125 C 188.347656 334.132812 184.660156 339.179688 182.0625 344.722656 C 181.644531 345.613281 182.867188 346.335938 183.402344 345.464844 C 185.550781 341.976562 187.746094 338.574219 190.117188 335.28125 C 188.910156 338.175781 187.703125 341.070312 186.464844 343.953125 C 186.109375 344.78125 187.015625 345.460938 187.691406 344.894531 C 189.355469 343.496094 190.378906 341.734375 191.550781 339.925781 C 193.09375 337.535156 194.902344 335.441406 196.808594 333.34375 C 197.4375 332.652344 196.785156 331.414062 195.9375 332.132812 "/>
<path style=" stroke:none;fill-rule:nonzero;fill:rgb(85.099792%,82.348633%,79.219055%);fill-opacity:1;" d="M 196.8125 339.660156 C 195.242188 340.679688 194.023438 342.328125 192.777344 343.710938 C 191.355469 345.289062 189.929688 346.867188 188.507812 348.445312 C 188.015625 348.996094 188.605469 350.027344 189.191406 349.398438 C 190.625 347.839844 192.066406 346.285156 193.503906 344.726562 C 194.792969 343.328125 196.324219 341.945312 197.246094 340.265625 C 197.40625 339.976562 197.214844 339.398438 196.8125 339.660156 "/>
<path style=" stroke:none;fill-rule:nonzero;fill:rgb(92.939758%,67.059326%,61.178589%);fill-opacity:1;" d="M 110.148438 314.457031 C 109.792969 312.933594 109.46875 311.398438 109.171875 309.863281 C 108.9375 308.640625 108.847656 307.328125 108.214844 306.242188 C 107.964844 305.8125 107.488281 306.261719 107.425781 306.570312 C 107.132812 307.96875 107.527344 309.457031 107.785156 310.839844 C 107.867188 311.28125 107.96875 311.71875 108.0625 312.15625 C 107.738281 311.730469 107.402344 311.316406 107.078125 310.890625 C 106.527344 310.148438 106.039062 309.074219 105.144531 308.730469 C 104.824219 308.609375 104.457031 308.941406 104.453125 309.261719 C 104.4375 310.324219 105.082031 311.167969 105.648438 312.027344 C 106.308594 313.027344 107.070312 313.941406 107.867188 314.832031 C 108.144531 315.140625 108.472656 315.15625 108.753906 315.023438 C 108.753906 315.03125 108.753906 315.035156 108.753906 315.039062 C 109 315.953125 110.332031 315.261719 110.148438 314.457031 "/>
<path style=" stroke:none;fill-rule:nonzero;fill:rgb(89.019775%,60.389709%,58.81958%);fill-opacity:1;" d="M 142.785156 266.28125 C 142.332031 266.746094 141.464844 266.945312 140.890625 267.238281 C 140.289062 267.542969 139.664062 267.863281 139.117188 268.261719 C 138.761719 268.523438 138.542969 268.925781 138.65625 269.375 C 138.746094 269.730469 139.117188 270.097656 139.515625 269.9375 C 140.160156 269.679688 140.765625 269.347656 141.390625 269.046875 C 141.867188 268.816406 142.714844 268.21875 143.25 268.242188 C 145.21875 268.316406 144.183594 264.867188 142.785156 266.28125 "/>
<path style=" stroke:none;fill-rule:nonzero;fill:rgb(100%,100%,100%);fill-opacity:1;" d="M 144.96875 180.675781 C 144.96875 180.675781 155.710938 180.617188 157.15625 181.460938 C 156.433594 185.832031 154.261719 189.695312 151.0625 189.472656 C 147.863281 189.25 145.246094 185.382812 144.96875 180.675781 "/>
<path style=" stroke:none;fill-rule:nonzero;fill:rgb(0%,0%,0%);fill-opacity:1;" d="M 153.398438 160.582031 C 152.332031 161.121094 152.277344 162.34375 152.316406 163.394531 C 152.359375 164.496094 152.40625 165.621094 152.800781 166.664062 C 153.152344 167.589844 154.417969 167.332031 154.664062 166.457031 C 154.917969 165.542969 154.976562 164.644531 154.972656 163.699219 C 154.964844 162.953125 155.046875 162.21875 155.035156 161.472656 C 155.023438 160.597656 154.078125 160.238281 153.398438 160.582031 "/>
<path style=" stroke:none;fill-rule:nonzero;fill:rgb(83.139038%,32.159424%,23.529053%);fill-opacity:1;" d="M 157.398438 153.65625 C 155.378906 152.507812 153.21875 154.210938 151.511719 155.230469 C 150.664062 155.734375 150.796875 157.378906 151.972656 157.164062 C 152.746094 157.019531 153.433594 156.722656 154.171875 156.460938 C 154.972656 156.179688 155.6875 156.230469 156.507812 156.152344 C 157.503906 156.058594 158.566406 154.320312 157.398438 153.65625 "/>
<path style=" stroke:none;fill-rule:nonzero;fill:rgb(92.939758%,67.059326%,61.178589%);fill-opacity:1;" d="M 124.652344 172.921875 C 124.652344 172.921875 122.019531 170.679688 122.578125 169.261719 C 123.132812 167.839844 124.652344 167.46875 124.652344 167.46875 C 124.652344 167.46875 119.3125 156.820312 116.640625 162.3125 C 113.96875 167.804688 120.351562 173.671875 124.652344 172.921875 "/>
<path style=" stroke:none;fill-rule:nonzero;fill:rgb(76.078796%,38.42926%,16.859436%);fill-opacity:1;" d="M 332.652344 112.464844 C 332.652344 112.464844 326.347656 107.085938 325.085938 99.019531 C 323.828125 90.953125 326.71875 86.710938 326.71875 86.710938 C 326.71875 86.710938 325.085938 77.199219 326.125 71.449219 C 327.160156 65.695312 334.882812 63.007812 334.882812 63.007812 C 334.882812 63.007812 328.5 54.789062 330.726562 53.519531 C 332.953125 52.25 349.945312 54.191406 349.945312 54.191406 C 349.945312 54.191406 346.460938 50.304688 346.902344 49.558594 C 347.347656 48.8125 367.460938 53.519531 370.5 62.558594 C 370.722656 62.636719 370.816406 60.019531 372.140625 60.316406 C 373.46875 60.617188 380.390625 81.40625 372.140625 84.722656 C 363.894531 88.035156 332.652344 112.464844 332.652344 112.464844 "/>
<path style=" stroke:none;fill-rule:nonzero;fill:rgb(98.81897%,79.219055%,64.709473%);fill-opacity:1;" d="M 331.539062 93.824219 C 331.539062 93.824219 321.894531 88.113281 325.007812 80.640625 C 328.128906 73.167969 331.539062 82.082031 331.539062 82.082031 C 331.539062 82.082031 331.390625 89.53125 334.65625 87.738281 C 337.921875 85.945312 335.859375 78.757812 335.859375 78.757812 C 335.859375 78.757812 337.703125 81.6875 339.40625 79.074219 C 341.113281 76.453125 338.960938 69.210938 338.960938 69.210938 C 338.960938 69.210938 354.027344 61.8125 363.972656 67.566406 C 373.910156 73.316406 375.769531 102.15625 374.28125 110.863281 C 372.800781 119.566406 342.304688 118.941406 337.996094 110.175781 C 333.691406 101.410156 331.539062 93.824219 331.539062 93.824219 "/>
<path style=" stroke:none;fill-rule:nonzero;fill:rgb(92.939758%,67.059326%,61.178589%);fill-opacity:1;" d="M 358.699219 143.140625 C 358.699219 143.140625 352.496094 131.820312 353.355469 127.335938 C 354.222656 122.855469 372.945312 122.855469 374.28125 110.863281 C 354.484375 120.105469 334.992188 107.613281 331.539062 93.828125 C 332.765625 114 329.757812 133.050781 325.085938 135.070312 C 320.414062 137.085938 345.675781 157.597656 358.699219 143.140625 "/>
<path style=" stroke:none;fill-rule:nonzero;fill:rgb(92.939758%,67.059326%,61.178589%);fill-opacity:1;" d="M 245.742188 173.613281 C 245.742188 173.613281 298.890625 162.90625 299.632812 162.457031 C 300.375 162.003906 297.109375 138.84375 297.109375 138.84375 C 297.109375 138.84375 251.515625 160.113281 245.742188 173.613281 "/>
<path style=" stroke:none;fill-rule:nonzero;fill:rgb(92.939758%,67.059326%,61.178589%);fill-opacity:1;" d="M 361.519531 171.570312 L 393.128906 187.558594 C 393.128906 187.558594 399.070312 175.308594 395.359375 170.152344 C 391.644531 164.996094 372.648438 157.671875 372.648438 157.671875 L 361.519531 171.570312 "/>
<path style=" stroke:none;fill-rule:nonzero;fill:rgb(30.979919%,65.098572%,81.17981%);fill-opacity:1;" d="M 289.542969 145.121094 C 289.542969 145.121094 291.765625 163.796875 293.101562 170.148438 C 298.300781 168.128906 304.382812 166.875 304.382812 166.875 C 304.382812 166.875 294.585938 205.265625 288.945312 213.445312 C 283.308594 221.625 297.851562 234.371094 297.851562 234.371094 C 297.851562 234.371094 367.605469 222.28125 366.269531 219.113281 C 364.9375 215.945312 357.066406 208.179688 357.066406 208.179688 C 357.066406 208.179688 362.238281 205.933594 360.84375 201.75 C 359.445312 197.566406 356.773438 195.328125 356.921875 193.085938 C 357.066406 190.84375 359.417969 180.234375 360.84375 180.234375 C 362.261719 180.234375 368.074219 182.824219 368.074219 182.824219 C 368.074219 182.824219 376.511719 164.84375 376.511719 162.152344 C 376.511719 159.464844 363.003906 140.9375 363.003906 140.9375 L 352.765625 139.289062 C 352.765625 139.289062 343.898438 148.703125 336.605469 144.519531 C 329.316406 140.335938 328.308594 129.429688 328.308594 129.429688 L 309.429688 128.832031 L 289.542969 145.121094 "/>
<path style=" stroke:none;fill-rule:nonzero;fill:rgb(27.059937%,57.249451%,70.979309%);fill-opacity:1;" d="M 289.988281 219.113281 C 289.988281 218.339844 306.171875 196.824219 312.472656 193.535156 C 318.777344 190.246094 307.5 190.246094 307.796875 187.554688 C 308.09375 184.867188 322.046875 176.949219 325.308594 176.949219 C 328.574219 176.949219 313.585938 173.066406 313.585938 170.148438 C 313.585938 167.234375 346.679688 156.027344 358.40625 162.300781 C 370.125 168.582031 352.761719 182.074219 353.210938 181.601562 C 353.652344 181.128906 350.304688 190.507812 354.695312 196.039062 C 359.082031 201.570312 360.410156 204.070312 355.882812 207.355469 C 358.398438 209.527344 365.304688 215.875 365.15625 217.367188 C 365.007812 218.863281 361.523438 226.707031 361.523438 226.707031 L 299.742188 229.84375 L 289.988281 219.113281 "/>
<path style=" stroke:none;fill-rule:nonzero;fill:rgb(32.159424%,32.159424%,32.159424%);fill-opacity:1;" d="M 323.742188 114.984375 C 323.742188 114.984375 340.296875 115.609375 349.796875 120.050781 C 359.296875 124.5 360.925781 129.429688 357.808594 135.332031 C 354.691406 141.234375 345.714844 147.808594 342.671875 146.089844 C 339.628906 144.371094 341.261719 138.917969 337.179688 136.003906 C 333.101562 133.089844 327.960938 132.105469 326.199219 134.4375 C 324.433594 136.765625 325.007812 142.65625 318.851562 140.5625 C 312.691406 138.46875 311.652344 120.835938 312.992188 117.175781 C 314.328125 113.515625 323.0625 114.363281 323.742188 114.984375 "/>
<path style=" stroke:none;fill-rule:nonzero;fill:rgb(98.81897%,79.219055%,64.709473%);fill-opacity:1;" d="M 311.800781 134.734375 C 311.800781 134.734375 250.65625 175.152344 242.941406 174.109375 C 235.222656 173.0625 231.511719 170.074219 230.472656 167.683594 C 229.433594 165.292969 235.371094 148.554688 239.675781 145.417969 C 243.976562 142.277344 303.378906 125.207031 304.382812 124.3125 C 305.386719 123.414062 311.730469 113.441406 312.246094 110.898438 C 312.765625 108.359375 325.230469 113.214844 325.230469 114.636719 C 325.230469 116.054688 317.441406 112.695312 314.476562 117.25 C 311.507812 121.808594 326.570312 122.332031 328.574219 125.019531 C 330.578125 127.710938 330.128906 135.855469 329.167969 136.527344 C 328.203125 137.199219 325.753906 133.164062 325.753906 133.164062 C 325.753906 133.164062 326.347656 136.226562 325.007812 136.675781 C 323.675781 137.125 318.183594 135.929688 318.183594 135.929688 L 311.800781 134.734375 "/>
<path style=" stroke:none;fill-rule:nonzero;fill:rgb(98.81897%,79.219055%,64.709473%);fill-opacity:1;" d="M 349.796875 120.050781 C 349.796875 120.050781 359.148438 124.535156 357.144531 129.015625 C 355.140625 133.5 344.679688 127.675781 341.558594 129.015625 C 338.445312 130.363281 336.21875 137.421875 336.660156 138.769531 C 337.109375 140.113281 340.335938 138.769531 340.335938 138.769531 C 340.335938 138.769531 345.011719 145.378906 347.792969 146.726562 C 350.574219 148.070312 357.425781 144.929688 357.425781 144.929688 C 357.425781 144.929688 399.753906 197.496094 409.058594 198.613281 C 418.363281 199.734375 425.707031 198.167969 426.152344 193.90625 C 426.597656 189.648438 421.925781 175.976562 417.027344 171.269531 C 412.128906 166.5625 364.265625 134.957031 364.265625 134.957031 C 364.265625 134.957031 362.039062 127.039062 359.964844 123.378906 C 357.886719 119.71875 348.90625 118.96875 349.796875 120.050781 "/>
<path style=" stroke:none;fill-rule:nonzero;fill:rgb(83.139038%,32.159424%,23.529053%);fill-opacity:1;" d="M 253.234375 210.253906 C 253.234375 210.253906 268.539062 266.085938 290.132812 275.945312 C 311.730469 285.808594 320.410156 277.933594 335.101562 278.957031 C 349.792969 279.980469 372.351562 285.660156 403.371094 209.414062 C 381.851562 195.253906 352.695312 224.617188 352.695312 224.617188 L 352.695312 220.132812 C 352.695312 220.132812 324.417969 215.429688 304.601562 226.414062 C 288.351562 216.101562 253.234375 210.253906 253.234375 210.253906 "/>
<path style=" stroke:none;fill-rule:nonzero;fill:rgb(72.938538%,28.239441%,20.779419%);fill-opacity:1;" d="M 273.511719 216.09375 C 273.511719 216.09375 271.433594 279.910156 309.425781 281.550781 C 329.460938 279.90625 339.398438 279.609375 349.273438 280.054688 C 359.144531 280.5 376.804688 255.847656 377.546875 251.511719 C 378.289062 247.179688 373.539062 247.863281 372.800781 243.261719 C 372.058594 238.664062 387.195312 225.8125 383.632812 221.03125 C 380.070312 216.25 352.695312 228.203125 352.695312 228.203125 C 352.695312 228.203125 339.109375 219.984375 323.675781 224.167969 C 316.550781 226.109375 338.128906 227.902344 335.949219 230.59375 C 333.769531 233.28125 326.496094 229.785156 315.214844 234.375 C 303.9375 238.960938 273.511719 216.09375 273.511719 216.09375 "/>
<path style=" stroke:none;fill-rule:nonzero;fill:rgb(98.039246%,59.21936%,21.958923%);fill-opacity:1;" d="M 313.0625 256.746094 C 313.0625 256.746094 274.882812 256.910156 272.324219 262.730469 C 269.765625 268.550781 278.113281 266.980469 278.667969 267.875 C 279.222656 268.773438 278.507812 271.238281 284.984375 273.257812 C 291.46875 275.273438 315.847656 275.160156 321.742188 275.945312 C 327.644531 276.730469 326.640625 265 326.640625 265 L 313.0625 256.746094 "/>
<path style=" stroke:none;fill-rule:nonzero;fill:rgb(92.939758%,51.759338%,26.269531%);fill-opacity:1;" d="M 383.632812 221.703125 C 383.632812 221.703125 390.460938 225.941406 398.773438 219.113281 C 407.085938 212.289062 404.113281 206.6875 403.742188 206.085938 C 403.371094 205.488281 383.632812 221.703125 383.632812 221.703125 "/>
<path style=" stroke:none;fill-rule:nonzero;fill:rgb(92.939758%,51.759338%,26.269531%);fill-opacity:1;" d="M 253.238281 207.207031 C 253.238281 207.207031 248.878906 216.101562 258.226562 222.296875 C 267.574219 228.5 276.257812 222 276.257812 222 L 253.238281 207.207031 "/>
<path style=" stroke:none;fill-rule:nonzero;fill:rgb(92.939758%,67.059326%,61.178589%);fill-opacity:1;" d="M 386.75 179.113281 C 386.75 179.113281 399.046875 161.914062 407.171875 168.300781 C 415.296875 174.691406 410.230469 198.742188 410.230469 198.742188 C 410.230469 198.742188 407.300781 199.179688 404.074219 196.789062 C 400.847656 194.398438 386.75 179.113281 386.75 179.113281 "/>
<path style=" stroke:none;fill-rule:nonzero;fill:rgb(98.81897%,79.219055%,64.709473%);fill-opacity:1;" d="M 326.707031 248.824219 C 326.707031 248.824219 395.800781 167.386719 404.855469 170.226562 C 413.910156 173.0625 405.894531 206.613281 403.371094 209.414062 C 400.847656 212.214844 394.167969 220.636719 389.269531 219.117188 C 373.6875 231.191406 334.214844 256.742188 334.214844 256.742188 L 326.707031 248.824219 "/>
<path style=" stroke:none;fill-rule:nonzero;fill:rgb(92.939758%,67.059326%,61.178589%);fill-opacity:1;" d="M 326.707031 247.925781 L 335.425781 238.695312 L 353.730469 243.902344 L 334.324219 258.460938 L 326.707031 247.925781 "/>
<path style=" stroke:none;fill-rule:nonzero;fill:rgb(98.039246%,59.21936%,21.958923%);fill-opacity:1;" d="M 327.089844 269.222656 C 327.089844 269.222656 335.253906 257.117188 335.472656 255.699219 C 335.695312 254.277344 340.371094 258.6875 346.085938 258.085938 C 351.800781 257.488281 369.902344 242.847656 371.167969 243.96875 C 372.429688 245.085938 369.164062 250.992188 369.238281 251.8125 C 369.3125 252.636719 370.648438 256.070312 369.089844 259.132812 C 367.53125 262.199219 348.382812 281.398438 344.230469 281.550781 C 340.074219 281.699219 337.40625 275.570312 335.695312 274.226562 C 333.992188 272.882812 327.089844 269.222656 327.089844 269.222656 "/>
<path style=" stroke:none;fill-rule:nonzero;fill:rgb(98.81897%,79.219055%,64.709473%);fill-opacity:1;" d="M 335.949219 255.433594 C 335.949219 255.433594 272.027344 167.535156 262.972656 169.03125 C 253.917969 170.523438 249.023438 194.882812 252.882812 209.078125 C 256.742188 223.273438 269.503906 220.882812 269.503906 220.882812 C 269.503906 220.882812 292.65625 249.273438 327.089844 269.222656 C 334.210938 263.621094 335.949219 255.433594 335.949219 255.433594 "/>
<path style=" stroke:none;fill-rule:nonzero;fill:rgb(27.059937%,57.249451%,70.979309%);fill-opacity:1;" d="M 345.296875 149.105469 C 337.992188 150.898438 331.40625 147.054688 327.878906 140.519531 C 327.449219 139.726562 326.300781 140.753906 326.644531 141.453125 C 329.363281 147.003906 339.476562 156.773438 345.757812 150.339844 C 346.164062 149.925781 346.042969 148.917969 345.296875 149.105469 "/>
<path style=" stroke:none;fill-rule:nonzero;fill:rgb(89.019775%,60.389709%,58.81958%);fill-opacity:1;" d="M 366.707031 88.953125 C 365.703125 85.714844 364.277344 81.300781 361.828125 78.878906 C 361.402344 78.460938 361.015625 79.242188 361.101562 79.589844 C 361.601562 81.679688 362.832031 83.609375 363.660156 85.59375 C 364.042969 86.519531 364.398438 87.457031 364.707031 88.414062 C 364.941406 89.082031 365.128906 89.761719 365.273438 90.460938 C 364.597656 91.367188 363.742188 91.960938 362.703125 92.234375 C 361.261719 92.773438 361.660156 95.273438 363.25 94.535156 C 366.035156 93.238281 367.722656 92.226562 366.707031 88.953125 "/>
<path style=" stroke:none;fill-rule:nonzero;fill:rgb(0%,0%,0%);fill-opacity:1;" d="M 352.804688 82.714844 C 352.433594 81.675781 351.097656 82.042969 350.800781 82.933594 C 350.464844 83.964844 350.363281 85.160156 350.472656 86.234375 C 350.644531 88.046875 352.980469 87.480469 353.125 85.925781 C 353.226562 84.882812 353.152344 83.703125 352.804688 82.714844 "/>
<path style=" stroke:none;fill-rule:nonzero;fill:rgb(0%,0%,0%);fill-opacity:1;" d="M 370.78125 86.378906 C 370.183594 85.421875 368.875 86.3125 368.820312 87.191406 C 368.761719 88.148438 368.933594 89.097656 368.976562 90.050781 C 369.011719 90.800781 369.746094 91.332031 370.453125 91.164062 C 371.226562 90.980469 371.65625 90.097656 371.585938 89.359375 C 371.492188 88.324219 371.332031 87.273438 370.78125 86.378906 "/>
<path style=" stroke:none;fill-rule:nonzero;fill:rgb(100%,54.899597%,54.899597%);fill-opacity:1;" d="M 353.867188 104.339844 C 353.867188 104.339844 348.746094 110.078125 345.988281 108.171875 C 343.226562 106.269531 346.585938 100.199219 347.570312 99.882812 C 348.554688 99.5625 353.867188 104.339844 353.867188 104.339844 "/>
<path style=" stroke:none;fill-rule:nonzero;fill:rgb(89.019775%,46.269226%,46.269226%);fill-opacity:1;" d="M 363.066406 102.171875 C 356.164062 103.113281 349.597656 101.832031 344.886719 96.308594 C 344.316406 95.636719 343.433594 96.644531 343.890625 97.273438 C 348.1875 103.167969 356.210938 106.800781 363.28125 104.011719 C 364.207031 103.644531 364.261719 102.007812 363.066406 102.171875 "/>
<path style=" stroke:none;fill-rule:nonzero;fill:rgb(76.078796%,38.42926%,16.859436%);fill-opacity:1;" d="M 358.335938 72.679688 C 356.769531 71.988281 354.65625 72.222656 352.988281 72.417969 C 351.277344 72.617188 349.425781 72.96875 348.195312 74.265625 C 347.816406 74.664062 347.792969 75.375 348.34375 75.632812 C 349.757812 76.273438 351.484375 75.90625 352.988281 75.835938 C 354.628906 75.75 356.386719 76.027344 357.984375 75.648438 C 359.300781 75.335938 359.59375 73.246094 358.335938 72.679688 "/>
<path style=" stroke:none;fill-rule:nonzero;fill:rgb(76.078796%,38.42926%,16.859436%);fill-opacity:1;" d="M 370.875 77.824219 C 370.015625 76.648438 368.757812 75.816406 367.511719 75.097656 C 367.03125 74.824219 366.554688 74.738281 366.050781 75.035156 C 365.980469 75.078125 365.910156 75.117188 365.84375 75.160156 C 365.339844 75.453125 365.0625 76.074219 365.121094 76.648438 C 365.277344 78.113281 366.925781 78.625 368.042969 79.320312 C 369.128906 79.996094 370.355469 80.367188 371.3125 81.246094 C 371.570312 81.480469 371.972656 81.214844 372.058594 80.941406 C 372.414062 79.714844 371.554688 78.753906 370.875 77.824219 "/>
<path style=" stroke:none;fill-rule:nonzero;fill:rgb(92.939758%,67.059326%,61.178589%);fill-opacity:1;" d="M 331.597656 89.484375 C 331.597656 89.484375 328.257812 89.582031 327.921875 87.363281 C 327.585938 85.140625 330.070312 84.945312 330.070312 84.945312 C 330.070312 84.945312 328.175781 79.171875 326.449219 81.582031 C 324.722656 83.992188 326.699219 88.980469 329.121094 90.214844 C 331.539062 91.445312 331.597656 89.484375 331.597656 89.484375 "/>
<path style=" stroke:none;fill-rule:nonzero;fill:rgb(32.159424%,32.159424%,32.159424%);fill-opacity:1;" d="M 447.746094 303.292969 C 447.746094 303.292969 467.113281 365.628906 470.230469 368.191406 C 473.347656 370.757812 529.890625 366.277344 531.675781 362.015625 C 533.453125 357.757812 509.191406 297.238281 506.292969 294.550781 C 503.402344 291.859375 447.300781 294.996094 447.746094 303.292969 "/>
<path style=" stroke:none;fill-rule:nonzero;fill:rgb(78.819275%,29.798889%,29.798889%);fill-opacity:1;" d="M 486.59375 302.617188 C 486.59375 302.617188 503.402344 348.230469 503.738281 348.679688 C 504.070312 349.128906 514.644531 348.117188 514.644531 348.117188 C 514.644531 348.117188 496.949219 302.058594 496.167969 301.722656 C 495.386719 301.386719 486.59375 302.617188 486.59375 302.617188 "/>
<path style=" stroke:none;fill-rule:nonzero;fill:rgb(25.878906%,25.878906%,25.878906%);fill-opacity:1;" d="M 457.878906 306.988281 L 462.332031 317.96875 L 472.238281 316.066406 C 472.238281 316.066406 468.453125 305.15625 467.785156 304.855469 C 467.117188 304.558594 457.878906 306.988281 457.878906 306.988281 "/>
<path style=" stroke:none;fill-rule:nonzero;fill:rgb(25.878906%,25.878906%,25.878906%);fill-opacity:1;" d="M 473.679688 349.351562 L 478.132812 360.335938 L 488.039062 358.429688 C 488.039062 358.429688 484.253906 347.519531 483.585938 347.222656 C 482.921875 346.921875 473.679688 349.351562 473.679688 349.351562 "/>
<path style=" stroke:none;fill-rule:nonzero;fill:rgb(87.838745%,87.838745%,87.838745%);fill-opacity:1;" d="M 487.804688 319.425781 C 487.339844 316.660156 486.460938 312.636719 483.398438 311.746094 C 482.261719 311.414062 481.042969 312.621094 481.304688 313.800781 C 481.558594 314.929688 481.660156 316.027344 481.589844 317.191406 C 481.550781 317.882812 481.6875 319.601562 480.734375 318.675781 C 479.496094 317.476562 479.828125 315.257812 478.441406 314.125 C 477.917969 313.699219 477.082031 314.132812 476.933594 314.742188 C 476.519531 316.453125 477.242188 318.546875 477.957031 320.125 C 478.582031 321.507812 479.832031 322.675781 481.433594 322.496094 C 483.226562 322.292969 484.097656 320.789062 484.460938 318.976562 C 484.644531 319.699219 484.875 320.375 485.316406 320.871094 C 486.34375 322.015625 488.046875 320.84375 487.804688 319.425781 "/>
<path style=" stroke:none;fill-rule:nonzero;fill:rgb(87.838745%,87.838745%,87.838745%);fill-opacity:1;" d="M 490.585938 323.734375 C 489.667969 322.898438 488.414062 323.261719 487.335938 323.535156 C 485.183594 324.078125 482.378906 324.902344 481.511719 327.191406 C 481.082031 328.316406 482.464844 329.167969 483.160156 328.101562 C 483.792969 327.128906 486.417969 327.003906 487.433594 326.820312 C 487.675781 326.777344 488.199219 326.582031 488.433594 326.644531 C 488.726562 326.726562 488.71875 326.917969 488.925781 327.199219 C 489.328125 327.742188 489.667969 327.921875 490.34375 327.980469 C 491.105469 328.046875 491.570312 327.261719 491.703125 326.632812 C 491.9375 325.566406 491.378906 324.457031 490.585938 323.734375 "/>
<path style=" stroke:none;fill-rule:nonzero;fill:rgb(87.838745%,87.838745%,87.838745%);fill-opacity:1;" d="M 494.867188 332.597656 C 493.28125 328.011719 486.460938 329.3125 483.96875 332.261719 C 483.421875 332.914062 483.796875 334.640625 484.828125 333.890625 C 486.183594 332.90625 490.324219 332.109375 491.625 333.589844 C 492.546875 334.636719 490.839844 335.617188 489.929688 335.726562 C 488.832031 335.855469 487.742188 335.699219 486.640625 335.878906 C 484.964844 336.148438 484.980469 338.882812 486.640625 339.152344 C 488.832031 339.511719 491.121094 339.351562 492.882812 337.898438 C 494.429688 336.613281 495.578125 334.65625 494.867188 332.597656 "/>
<path style=" stroke:none;fill-rule:nonzero;fill:rgb(87.838745%,87.838745%,87.838745%);fill-opacity:1;" d="M 495.140625 341.371094 C 493.871094 341.324219 492.589844 341.449219 491.328125 341.589844 C 490.292969 341.703125 489.046875 341.710938 488.109375 342.210938 C 486.953125 342.824219 486.925781 344.640625 488.09375 345.214844 C 488.890625 345.609375 490.324219 345.117188 491.167969 345.039062 C 492.363281 344.925781 493.558594 344.914062 494.746094 344.832031 C 496.578125 344.703125 497.222656 341.445312 495.140625 341.371094 "/>
<path style=" stroke:none;fill-rule:nonzero;fill:rgb(25.878906%,25.878906%,25.878906%);fill-opacity:1;" d="M 490.488281 306.355469 C 490.488281 306.355469 491.09375 291.5625 491.757812 290.367188 C 492.417969 289.171875 496.875 289.019531 498.507812 290.367188 C 500.136719 291.710938 513.566406 323.984375 514.644531 330.410156 C 515.71875 336.835938 512.75 345.367188 512.75 345.367188 C 512.75 345.367188 507.707031 344.933594 506.515625 345.367188 C 505.328125 345.804688 490.488281 306.355469 490.488281 306.355469 "/>
<path style=" stroke:none;fill-rule:nonzero;fill:rgb(18.03894%,18.03894%,18.03894%);fill-opacity:1;" d="M 454.980469 317.304688 C 453.101562 317.140625 451.6875 317.707031 450.027344 318.546875 C 448.035156 319.554688 447.300781 320.480469 444.542969 319.855469 C 443.625 319.648438 442.871094 318.882812 441.902344 318.6875 C 438.046875 317.917969 434.972656 320.90625 433.027344 323.90625 C 430.902344 327.183594 429.933594 330.898438 425.285156 331.46875 C 422.914062 331.761719 420.375 330.578125 418.070312 330.125 C 412.660156 329.054688 408.472656 331.015625 403.992188 333.921875 C 398.710938 337.347656 393.929688 340.003906 387.425781 340.308594 C 381.480469 340.589844 374.652344 339.894531 368.929688 338.132812 C 360.574219 335.554688 360.554688 327.398438 361.128906 319.953125 C 361.660156 313.066406 363.445312 306.425781 366.117188 300.078125 C 370.03125 290.769531 376.679688 280.472656 375.316406 269.898438 C 374.925781 266.875 373.851562 263.652344 371.46875 261.625 C 369.878906 260.269531 367.8125 260.453125 366.253906 259.359375 C 363.277344 257.273438 365.402344 251.023438 365.953125 248.246094 C 368.28125 236.492188 372.214844 224.117188 369.078125 212.121094 C 367.90625 207.65625 365.742188 203.617188 362.984375 199.957031 C 361.476562 197.953125 359.800781 196.085938 358.074219 194.28125 C 355.765625 191.871094 352.109375 189.429688 350.5625 186.453125 C 348.457031 182.402344 349.730469 178.046875 350.667969 173.847656 C 351.523438 170.039062 352.539062 166.265625 353.410156 162.464844 C 354.8125 156.390625 355.976562 150.058594 355.351562 143.800781 C 354.40625 134.363281 349.433594 124.726562 339.972656 121.746094 C 339.195312 121.5 338.703125 122.867188 339.476562 123.128906 C 351.546875 127.210938 355.199219 141.089844 353.960938 152.617188 C 353.1875 159.753906 351.011719 166.636719 349.390625 173.601562 C 348.4375 177.671875 346.917969 182.417969 348.808594 186.433594 C 350.882812 190.816406 355.914062 194.117188 359.050781 197.679688 C 363.949219 203.246094 367.574219 209.550781 368.472656 217.046875 C 369.992188 229.746094 364.921875 242.121094 363.148438 254.519531 C 362.585938 258.488281 362.886719 260.171875 366.730469 261.582031 C 372.953125 263.859375 374.492188 269.445312 373.582031 275.753906 C 371.820312 287.945312 363.796875 298.320312 360.933594 310.25 C 359.003906 318.316406 356.023438 333.398438 364.65625 338.691406 C 368.066406 340.78125 372.421875 341.226562 376.296875 341.800781 C 381.957031 342.644531 387.839844 343.183594 393.472656 341.839844 C 399.511719 340.398438 403.8125 336.09375 409.367188 333.660156 C 413.179688 331.988281 416.40625 332.585938 420.378906 333.496094 C 422.902344 334.078125 425.535156 334.601562 428.015625 333.542969 C 432.964844 331.441406 433.105469 325.574219 436.929688 322.46875 C 441.292969 318.929688 442.65625 323.265625 446.535156 323.09375 C 449.472656 322.964844 451.558594 320.386719 454.585938 320.765625 C 456.457031 321 457.019531 317.484375 454.980469 317.304688 "/>
<path style=" stroke:none;fill-rule:nonzero;fill:rgb(18.03894%,18.03894%,18.03894%);fill-opacity:1;" d="M 461.210938 340.714844 C 455.066406 343.851562 448.890625 344.75 442.097656 344.320312 C 438.027344 344.0625 434.652344 344.320312 431.589844 347.285156 C 424.675781 353.96875 424.613281 364.996094 412.289062 363.773438 C 406.753906 363.222656 401.6875 361.300781 396.039062 361.695312 C 391.59375 362.003906 387.289062 363.308594 383.253906 365.164062 C 373.21875 369.769531 366.617188 378.007812 357.863281 384.316406 C 352.324219 388.308594 346.742188 388.792969 340.53125 386.183594 C 335.28125 383.976562 330.605469 381.289062 324.949219 380.144531 C 313.976562 377.917969 303.683594 380.359375 292.855469 381.859375 C 278.761719 383.804688 282.9375 369.1875 276.964844 361.523438 C 271.933594 355.070312 262.710938 354.21875 257.515625 348.050781 C 253.101562 342.8125 255.277344 334.1875 255.753906 327.859375 C 256.21875 321.671875 257.160156 315.285156 256.851562 309.074219 C 256.625 304.570312 255.296875 299.941406 251.472656 297.242188 C 248.875 295.410156 245.785156 294.839844 242.957031 295.890625 C 243.5625 284.890625 238.019531 273.972656 228.386719 268.398438 C 218.1875 262.496094 205.234375 263.886719 196.019531 270.960938 C 195.332031 271.492188 196.03125 272.648438 196.804688 272.054688 C 205.71875 265.207031 218.503906 264.105469 228.15625 270.128906 C 237.425781 275.90625 241.933594 287.253906 240.414062 297.945312 C 240.292969 298.816406 241.1875 299.742188 242.039062 299.171875 C 248.941406 294.535156 253.980469 303.171875 254.492188 308.957031 C 255.082031 315.636719 253.820312 322.8125 253.335938 329.476562 C 252.703125 338.082031 251.15625 346.859375 258.933594 352.558594 C 265.53125 357.390625 274.804688 358.96875 277.613281 367.683594 C 279.863281 374.695312 279.714844 384.089844 289.296875 384.421875 C 294.054688 384.582031 298.867188 382.910156 303.558594 382.234375 C 310.050781 381.296875 316.71875 380.945312 323.210938 382.070312 C 332.964844 383.757812 342.398438 392.730469 352.589844 389.503906 C 361.917969 386.550781 368.453125 376.875 376.378906 371.519531 C 381.082031 368.34375 386.273438 365.710938 391.851562 364.546875 C 398.414062 363.179688 404.070312 364.859375 410.527344 365.871094 C 414.90625 366.558594 419.371094 366.316406 422.875 363.324219 C 426.023438 360.632812 427.675781 356.691406 429.765625 353.210938 C 431.078125 351.019531 432.53125 348.707031 434.894531 347.542969 C 437.945312 346.042969 441.578125 347.136719 444.785156 347.253906 C 450.863281 347.476562 456.722656 345.910156 462.121094 343.148438 C 463.484375 342.445312 462.785156 339.910156 461.210938 340.714844 "/>
<path style=" stroke:none;fill-rule:nonzero;fill:rgb(98.81897%,79.219055%,64.709473%);fill-opacity:1;" d="M 333.957031 301.980469 C 333.957031 301.980469 340.332031 315.949219 339.136719 325.738281 C 340.242188 330 344.695312 336.421875 343.65625 338.738281 C 342.613281 341.054688 338.886719 342.398438 338.886719 342.398438 C 338.886719 342.398438 335.542969 361.449219 332.546875 362.796875 C 329.554688 364.140625 307.890625 361.226562 306.402344 362.195312 C 304.921875 363.171875 300.46875 374.828125 300.46875 374.828125 L 283.621094 357.914062 L 289.410156 347.480469 C 289.410156 347.480469 279.0625 296.152344 333.957031 301.980469 "/>
<path style=" stroke:none;fill-rule:nonzero;fill:rgb(21.958923%,21.958923%,21.958923%);fill-opacity:1;" d="M 282.101562 346.472656 C 282.332031 346.71875 283.4375 357.566406 285.21875 357.902344 C 287 358.238281 289.222656 351.515625 289.5625 352.1875 C 289.894531 352.859375 291.007812 355.101562 292.566406 355.214844 C 294.121094 355.328125 300.246094 345.800781 300.246094 345.800781 C 300.246094 345.800781 301.136719 348.710938 302.136719 348.601562 C 303.140625 348.488281 309.816406 348.152344 314.269531 335.9375 C 307.371094 339.074219 302.027344 328.875 305.140625 320.808594 C 308.261719 312.738281 315.273438 326.074219 315.273438 326.074219 C 315.273438 326.074219 317.945312 329.773438 319.058594 327.195312 C 320.167969 324.617188 321.171875 315.875 321.171875 315.875 C 321.171875 315.875 322.171875 320.023438 323.621094 318.003906 C 325.066406 315.988281 325.289062 303.210938 325.289062 303.210938 C 325.289062 303.210938 336.644531 306.238281 338.644531 297.605469 C 340.648438 288.980469 336.085938 278.445312 332.414062 275.417969 C 331.300781 274.523438 330.742188 282.703125 330.742188 282.703125 C 330.742188 282.703125 319.949219 273.847656 318.386719 273.960938 C 316.832031 274.074219 318.386719 285.054688 318.386719 285.054688 C 318.386719 285.054688 313.492188 281.132812 312.042969 281.246094 C 310.597656 281.355469 311.15625 285.054688 311.15625 285.054688 C 311.15625 285.054688 284.105469 278.894531 275.421875 301.417969 C 269.300781 313.859375 271.859375 322.9375 272.53125 324.617188 C 273.199219 326.296875 274.980469 324.394531 274.980469 324.394531 C 274.980469 324.394531 274.089844 337.84375 282.101562 346.472656 "/>
<path style=" stroke:none;fill-rule:nonzero;fill:rgb(100%,100%,100%);fill-opacity:1;" d="M 331.804688 344.339844 C 331.804688 344.339844 326.015625 342.433594 323.453125 343.386719 C 321.5625 346.636719 327.351562 353.359375 328.1875 353.359375 C 329.019531 353.359375 330.578125 347.367188 331.804688 344.339844 "/>
<path style=" stroke:none;fill-rule:nonzero;fill:rgb(21.958923%,21.958923%,21.958923%);fill-opacity:1;" d="M 335.289062 311.101562 C 333.820312 311.410156 332.382812 313.011719 331.503906 314.167969 C 330.796875 315.078125 329.355469 317.074219 330.414062 318.160156 C 331.625 319.40625 332.914062 317.230469 333.535156 316.464844 C 333.917969 315.996094 334.347656 315.558594 334.800781 315.160156 C 335.292969 314.722656 335.914062 314.421875 336.34375 313.925781 C 337.214844 312.933594 337.035156 310.730469 335.289062 311.101562 "/>
<path style=" stroke:none;fill-rule:nonzero;fill:rgb(0%,0%,0%);fill-opacity:1;" d="M 335.109375 323.644531 C 334.925781 322.777344 334.804688 321.882812 334.308594 321.132812 C 333.878906 320.480469 332.871094 320.867188 332.707031 321.542969 C 332.476562 322.472656 332.558594 323.363281 332.597656 324.3125 C 332.640625 325.289062 332.632812 326.191406 333.113281 327.0625 C 333.625 328.007812 335.019531 327.34375 335.234375 326.519531 C 335.492188 325.523438 335.320312 324.636719 335.109375 323.644531 "/>
<path style=" stroke:none;fill-rule:nonzero;fill:rgb(92.939758%,67.059326%,61.178589%);fill-opacity:1;" d="M 314.132812 331.902344 C 314.101562 331.820312 310.265625 332.492188 310.011719 330.390625 C 309.765625 328.285156 312.492188 327.644531 312.492188 327.644531 C 312.492188 327.644531 309.347656 321.394531 307.59375 322.90625 C 305.839844 324.421875 305.925781 330.921875 309.09375 333.050781 C 312.269531 335.179688 314.605469 333.132812 314.132812 331.902344 "/>
<path style=" stroke:none;fill-rule:nonzero;fill:rgb(92.549133%,91.369629%,86.268616%);fill-opacity:1;" d="M 172.515625 526.726562 C 172.515625 526.726562 143.859375 533.855469 141.855469 536.320312 C 139.851562 538.785156 146.53125 540.914062 146.53125 540.914062 C 146.53125 540.914062 144.527344 545.851562 158.773438 547.027344 C 173.019531 548.199219 202.183594 543.828125 202.628906 540.804688 C 203.074219 537.777344 172.515625 526.726562 172.515625 526.726562 "/>
<path style=" stroke:none;fill-rule:nonzero;fill:rgb(87.059021%,85.099792%,81.17981%);fill-opacity:1;" d="M 288.597656 492.726562 C 288.597656 492.726562 296.757812 494.589844 301.953125 496.234375 C 307.148438 497.878906 318.058594 495.636719 317.757812 497.507812 C 317.460938 499.375 309.300781 504.316406 305.292969 505.09375 C 301.285156 505.875 282.882812 511.625 281.324219 510.878906 C 279.765625 510.132812 279.171875 496.761719 279.171875 496.761719 L 288.597656 492.726562 "/>
<path style=" stroke:none;fill-rule:nonzero;fill:rgb(34.509277%,50.19989%,54.899597%);fill-opacity:1;" d="M 257.390625 469.972656 C 257.390625 469.972656 276.539062 491.828125 276.984375 492.613281 C 277.425781 493.394531 277.425781 497.992188 278.429688 498.328125 C 279.429688 498.664062 290.898438 493.394531 290.898438 492.726562 C 290.898438 492.050781 286.554688 489.140625 286.554688 489.140625 C 286.554688 489.140625 273.421875 450.023438 271.863281 448.230469 C 270.304688 446.4375 257.390625 469.972656 257.390625 469.972656 "/>
<path style=" stroke:none;fill-rule:nonzero;fill:rgb(39.219666%,57.249451%,63.139343%);fill-opacity:1;" d="M 163.78125 487.121094 C 163.558594 487.796875 156.878906 507.292969 160.441406 518.277344 C 164.003906 529.261719 182.480469 533.96875 182.480469 533.96875 C 182.480469 533.96875 197.398438 542.933594 220.996094 547.191406 C 244.589844 551.449219 336.753906 542.933594 338.757812 529.484375 C 340.761719 516.035156 320.058594 506.621094 307.59375 509.089844 C 288.894531 501.691406 251.046875 496.980469 251.046875 496.980469 L 163.78125 487.121094 "/>
<path style=" stroke:none;fill-rule:nonzero;fill:rgb(98.81897%,79.219055%,64.709473%);fill-opacity:1;" d="M 225.078125 363.171875 C 224.632812 363.617188 175.804688 389.917969 177.882812 398.433594 C 179.960938 406.953125 213.351562 406.355469 213.351562 406.355469 C 213.351562 406.355469 244.21875 386.929688 243.699219 386.480469 C 243.183594 386.03125 225.078125 363.171875 225.078125 363.171875 "/>
<path style=" stroke:none;fill-rule:nonzero;fill:rgb(98.81897%,79.219055%,64.709473%);fill-opacity:1;" d="M 411.5 538.730469 C 411.5 538.730469 417.066406 539.011719 417.34375 538.449219 C 417.625 537.890625 409.164062 535.03125 409.164062 535.03125 C 409.164062 535.03125 415.453125 534.414062 415.507812 534.078125 C 415.5625 533.742188 399.8125 530.265625 399.8125 530.265625 C 399.8125 530.265625 402.316406 527.410156 402.09375 526.738281 C 401.929688 526.234375 392.964844 527.40625 388.519531 528.019531 C 388.160156 527.890625 387.820312 527.777344 387.511719 527.691406 C 376.496094 519.734375 343.324219 480.84375 342.101562 479.386719 C 340.875 477.929688 325.179688 428.394531 325.179688 428.394531 L 301.585938 433.328125 C 301.585938 434 319.613281 490.484375 321.691406 494.070312 C 323.769531 497.65625 380.945312 536.207031 381.949219 537.441406 C 382.949219 538.675781 384.398438 541.476562 389.296875 542.597656 C 394.191406 543.71875 414.339844 543.042969 414.339844 542.597656 C 414.339844 542.519531 413.75 542.089844 412.753906 541.425781 C 413.984375 541.375 415.335938 541.292969 415.398438 541.140625 C 415.507812 540.859375 411.5 538.730469 411.5 538.730469 "/>
<path style=" stroke:none;fill-rule:nonzero;fill:rgb(92.939758%,67.059326%,61.178589%);fill-opacity:1;" d="M 235.167969 384.765625 C 234.722656 384.539062 202.816406 394.847656 202.222656 397.984375 C 201.625 401.125 225.078125 394.4375 225.078125 394.4375 L 235.167969 384.765625 "/>
<path style=" stroke:none;fill-rule:nonzero;fill:rgb(94.509888%,36.859131%,27.059937%);fill-opacity:1;" d="M 232.941406 384.089844 C 232.941406 384.089844 221.664062 367.355469 222.253906 360.929688 C 230.273438 356.746094 257.726562 347.960938 265.296875 348.242188 C 272.863281 348.527344 308.335938 368.847656 317.832031 396.34375 C 325.847656 417.5625 330.300781 436.242188 330.300781 436.242188 C 330.300781 436.242188 299.800781 443.191406 298.691406 442.742188 C 297.574219 442.292969 291.34375 423.464844 291.34375 423.464844 C 291.34375 423.464844 257.949219 466.273438 257.058594 481.964844 C 260.84375 487.570312 255.945312 491.378906 255.945312 491.378906 L 255.058594 500.121094 C 255.058594 500.121094 208.082031 503.933594 191.832031 505.050781 C 175.582031 506.171875 156.882812 484.878906 157.105469 483.761719 C 157.328125 482.636719 162.445312 480.84375 162.445312 480.84375 C 162.445312 480.84375 187.476562 427.074219 232.941406 384.089844 "/>
<path style=" stroke:none;fill-rule:nonzero;fill:rgb(34.509277%,50.19989%,54.899597%);fill-opacity:1;" d="M 176.816406 529.8125 C 175.6875 527.90625 174.609375 525.996094 173.828125 523.914062 C 173.277344 522.453125 173.234375 520.175781 172.238281 519.039062 C 171.378906 518.054688 168.5625 517.195312 167.261719 516.480469 C 164.980469 515.21875 162.660156 514.03125 160.398438 512.722656 C 159.664062 512.296875 158.921875 513.53125 159.605469 513.957031 C 161.476562 515.125 163.292969 516.359375 165.132812 517.578125 C 166.992188 518.808594 169.507812 519.816406 170.488281 521.921875 C 172.015625 525.203125 172.972656 528.507812 175 531.570312 C 175.894531 532.925781 177.523438 531 176.816406 529.8125 "/>
<path style=" stroke:none;fill-rule:nonzero;fill:rgb(34.509277%,50.19989%,54.899597%);fill-opacity:1;" d="M 219.136719 545.261719 C 218.246094 541.890625 215.746094 538.78125 213.769531 535.957031 C 211.519531 532.738281 208.996094 529.765625 206.582031 526.671875 C 206.578125 526.664062 206.570312 526.664062 206.566406 526.65625 C 206.398438 526.320312 206.09375 526.085938 205.585938 526.109375 C 201.621094 526.292969 197.882812 526.023438 193.992188 525.183594 C 191.109375 524.558594 188.417969 523.886719 185.464844 524.339844 C 184.503906 524.484375 183.949219 526.066406 184.589844 526.792969 C 186.109375 528.515625 186.625 531.558594 187.707031 533.601562 C 188.746094 535.5625 190.011719 537.339844 191.421875 539.046875 C 192.011719 539.765625 192.976562 538.679688 192.476562 538.027344 C 190.488281 535.445312 187.242188 531.1875 186.882812 527.453125 C 192.96875 528.257812 199.070312 529.621094 205.238281 529.15625 C 205.4375 529.140625 205.613281 529.082031 205.777344 528.992188 C 207.019531 531.542969 209.234375 533.785156 210.835938 536.046875 C 213.023438 539.152344 216.054688 542.726562 217.183594 546.394531 C 217.628906 547.851562 219.773438 546.492188 219.136719 545.261719 "/>
<path style=" stroke:none;fill-rule:nonzero;fill:rgb(34.509277%,50.19989%,54.899597%);fill-opacity:1;" d="M 251.433594 502.582031 C 249.917969 505.027344 249.082031 508.019531 247.859375 510.644531 C 246.339844 513.90625 244.984375 518.8125 240.894531 519.371094 C 239.910156 519.507812 239.78125 521.441406 240.894531 521.441406 C 245.066406 521.441406 247.117188 518.234375 248.871094 514.808594 C 250.683594 511.269531 253.578125 507.074219 253.496094 502.984375 C 253.46875 501.8125 251.964844 501.726562 251.433594 502.582031 "/>
<path style=" stroke:none;fill-rule:nonzero;fill:rgb(85.099792%,32.939148%,24.308777%);fill-opacity:1;" d="M 248.183594 498.09375 C 238.53125 497.042969 228.722656 497.386719 219.027344 496.277344 C 208.839844 495.109375 198.738281 493.3125 188.746094 490.992188 C 187.820312 490.78125 187.246094 492.398438 188.171875 492.617188 C 197.722656 494.878906 207.375 496.671875 217.109375 497.90625 C 227.089844 499.167969 237.921875 500.796875 247.976562 499.925781 C 248.945312 499.84375 249.292969 498.214844 248.183594 498.09375 "/>
<path style=" stroke:none;fill-rule:nonzero;fill:rgb(85.099792%,32.939148%,24.308777%);fill-opacity:1;" d="M 245.746094 481.816406 C 240.089844 481.296875 234.082031 482.359375 228.421875 482.78125 C 222.636719 483.207031 216.851562 483.636719 211.0625 484.0625 C 210.25 484.125 210.019531 485.628906 210.890625 485.566406 C 216.96875 485.121094 223.042969 484.675781 229.117188 484.234375 C 234.585938 483.832031 240.394531 483.957031 245.746094 482.6875 C 246.152344 482.589844 246.214844 481.859375 245.746094 481.816406 "/>
<path style=" stroke:none;fill-rule:nonzero;fill:rgb(85.099792%,32.939148%,24.308777%);fill-opacity:1;" d="M 271.34375 355.414062 C 260.859375 364.433594 251.851562 375.917969 243.476562 386.894531 C 234.695312 398.402344 226.5 410.355469 218.199219 422.214844 C 217.5625 423.128906 218.753906 424.15625 219.453125 423.1875 C 227.738281 411.734375 236.132812 400.378906 244.992188 389.367188 C 253.875 378.328125 263.558594 368.261719 273.039062 357.785156 C 274.261719 356.429688 272.988281 354 271.34375 355.414062 "/>
<path style=" stroke:none;fill-rule:nonzero;fill:rgb(85.099792%,32.939148%,24.308777%);fill-opacity:1;" d="M 240.992188 372.34375 C 237.546875 374.777344 234.996094 379.40625 232.875 382.976562 C 232.28125 383.972656 233.496094 385.070312 234.195312 384.003906 C 235.378906 382.1875 236.609375 380.402344 237.910156 378.667969 C 239.1875 376.964844 240.792969 375.332031 241.789062 373.449219 C 242.054688 372.941406 241.722656 371.828125 240.992188 372.34375 "/>
<path style=" stroke:none;fill-rule:nonzero;fill:rgb(85.099792%,32.939148%,24.308777%);fill-opacity:1;" d="M 306.3125 411.0625 C 304.421875 412.515625 302.699219 414.15625 300.742188 415.527344 C 299.296875 416.542969 297.1875 418.25 295.207031 418.464844 C 296.273438 416.796875 297.355469 415.144531 298.433594 413.488281 C 299.847656 411.5625 301.25 409.632812 302.363281 407.527344 C 303.046875 406.242188 301.519531 404.808594 300.679688 406.21875 C 298.371094 410.105469 295.96875 413.9375 293.558594 417.765625 C 293.277344 418.035156 293.011719 418.308594 292.707031 418.5625 C 292.40625 418.816406 292.285156 419.277344 292.34375 419.699219 C 291.828125 420.515625 291.316406 421.335938 290.800781 422.15625 C 290.164062 423.171875 291.453125 424.304688 292.15625 423.210938 C 292.65625 422.4375 293.152344 421.660156 293.648438 420.886719 C 295.582031 421.621094 297.589844 420.539062 299.421875 419.460938 C 302.371094 417.722656 305.4375 415.59375 307.679688 412.976562 C 308.640625 411.855469 307.703125 409.992188 306.3125 411.0625 "/>
<g clip-path="url(#clip1)" clip-rule="nonzero">
<path style=" stroke:none;fill-rule:nonzero;fill:rgb(25.878906%,25.878906%,25.878906%);fill-opacity:1;" d="M 492.867188 69.65625 L 484.90625 197.78125 L 573.007812 293.609375 L 581.023438 285.625 L 587.308594 152.457031 L 500.617188 67.566406 L 492.867188 69.65625 "/>
</g>
<path style=" stroke:none;fill-rule:nonzero;fill:rgb(49.01886%,80.778503%,84.309387%);fill-opacity:1;" d="M 488.042969 195.132812 L 571.523438 285.625 L 576.273438 157.183594 L 495.082031 74.847656 L 488.042969 195.132812 "/>
<path style=" stroke:none;fill-rule:nonzero;fill:rgb(94.509888%,36.859131%,27.059937%);fill-opacity:1;" d="M 489.753906 170.152344 L 526.996094 207.582031 L 529.890625 195.132812 L 553.488281 213.449219 L 556.160156 191.800781 L 564.839844 196.601562 L 563.285156 234.375 L 573.007812 245.449219 L 571.519531 285.628906 L 488.042969 195.132812 L 489.753906 170.152344 "/>
<path style=" stroke:none;fill-rule:nonzero;fill:rgb(21.958923%,21.958923%,21.958923%);fill-opacity:1;" d="M 520.09375 182.03125 L 517.871094 189.800781 L 523.0625 193.234375 L 526.257812 186.511719 L 520.09375 182.03125 "/>
<path style=" stroke:none;fill-rule:nonzero;fill:rgb(21.958923%,21.958923%,21.958923%);fill-opacity:1;" d="M 540.796875 193.238281 L 537.976562 201.410156 L 543.886719 205.996094 L 546.660156 195.925781 L 540.796875 193.238281 "/>
<path style=" stroke:none;fill-rule:nonzero;fill:rgb(100%,100%,100%);fill-opacity:1;" d="M 497.910156 128.382812 C 498.242188 128.496094 501.953125 130.585938 501.953125 130.585938 L 500.484375 136.8125 L 511.324219 142.15625 L 512.417969 136.304688 L 526.257812 142.804688 C 526.257812 142.804688 527.554688 134.398438 527.554688 133.726562 C 527.554688 133.054688 516.871094 128.910156 516.871094 128.910156 L 518.316406 119.71875 L 505.246094 108.761719 L 504.144531 114.488281 L 495.832031 108.210938 L 495.089844 119.601562 L 498.355469 121.714844 L 497.910156 128.382812 "/>
<path style=" stroke:none;fill-rule:nonzero;fill:rgb(100%,100%,100%);fill-opacity:1;" d="M 537.976562 157.523438 L 537.976562 166.878906 L 544.214844 171.417969 L 544.214844 178.144531 L 557.71875 187.632812 L 557.71875 182.824219 L 568.707031 190.246094 L 570.484375 180.984375 L 559.652344 176.351562 C 559.652344 176.351562 562.320312 165.738281 561.878906 165.738281 C 561.429688 165.738281 547.480469 157.523438 547.480469 157.523438 L 545.253906 163.496094 L 537.976562 157.523438 "/>
</g>
</svg>
