<?xml version="1.0" encoding="UTF-8"?>
<svg xmlns="http://www.w3.org/2000/svg" xmlns:xlink="http://www.w3.org/1999/xlink" width="600pt" height="599.999999pt" viewBox="0 0 600 599.999999" version="1.2">
<defs>
<clipPath id="clip1">
  <path d="M 199 123.820312 L 400 123.820312 L 400 269 L 199 269 Z M 199 123.820312 "/>
</clipPath>
<clipPath id="clip2">
  <path d="M 162.582031 239 L 436.753906 239 L 436.753906 476.320312 L 162.582031 476.320312 Z M 162.582031 239 "/>
</clipPath>
</defs>
<g id="surface1">
<g clip-path="url(#clip1)" clip-rule="nonzero">
<path style=" stroke:none;fill-rule:nonzero;fill:rgb(47.44873%,48.629761%,50.19989%);fill-opacity:1;" d="M 234.359375 268.90625 L 234.359375 168.257812 C 234.359375 162.351562 237.792969 157.550781 242.023438 157.550781 L 357.3125 157.550781 C 361.546875 157.550781 364.972656 162.351562 364.972656 168.257812 L 364.972656 268.90625 L 399.34375 268.90625 L 399.34375 136.847656 C 399.34375 129.675781 394.109375 123.859375 387.65625 123.859375 L 211.683594 123.859375 C 205.222656 123.859375 199.988281 129.675781 199.988281 136.847656 L 199.988281 268.90625 L 234.359375 268.90625 "/>
</g>
<g clip-path="url(#clip2)" clip-rule="nonzero">
<path style=" stroke:none;fill-rule:nonzero;fill:rgb(96.469116%,57.249451%,12.159729%);fill-opacity:1;" d="M 436.628906 463.554688 C 436.628906 470.730469 430.835938 476.539062 423.6875 476.539062 L 175.648438 476.539062 C 168.503906 476.539062 162.703125 470.730469 162.703125 463.554688 L 162.703125 252.878906 C 162.703125 245.710938 168.503906 239.898438 175.648438 239.898438 L 423.6875 239.898438 C 430.835938 239.898438 436.628906 245.710938 436.628906 252.878906 L 436.628906 463.554688 "/>
</g>
<path style=" stroke:none;fill-rule:nonzero;fill:rgb(90.979004%,90.979004%,90.19928%);fill-opacity:1;" d="M 247.929688 429.96875 C 247.929688 437.140625 242.136719 442.953125 234.984375 442.953125 L 199.996094 442.953125 C 192.847656 442.953125 187.054688 437.140625 187.054688 429.96875 L 187.054688 286.46875 C 187.054688 279.296875 192.847656 273.488281 199.996094 273.488281 L 234.984375 273.488281 C 242.136719 273.488281 247.929688 279.296875 247.929688 286.46875 L 247.929688 429.96875 "/>
<path style=" stroke:none;fill-rule:nonzero;fill:rgb(90.979004%,90.979004%,90.19928%);fill-opacity:1;" d="M 330.105469 429.96875 C 330.105469 437.140625 324.3125 442.953125 317.164062 442.953125 L 282.167969 442.953125 C 275.027344 442.953125 269.234375 437.140625 269.234375 429.96875 L 269.234375 286.46875 C 269.234375 279.296875 275.027344 273.488281 282.167969 273.488281 L 317.164062 273.488281 C 324.3125 273.488281 330.105469 279.296875 330.105469 286.46875 L 330.105469 429.96875 "/>
<path style=" stroke:none;fill-rule:nonzero;fill:rgb(90.979004%,90.979004%,90.19928%);fill-opacity:1;" d="M 412.277344 429.96875 C 412.277344 437.140625 406.484375 442.953125 399.339844 442.953125 L 364.355469 442.953125 C 357.207031 442.953125 351.414062 437.140625 351.414062 429.96875 L 351.414062 286.46875 C 351.414062 279.296875 357.207031 273.488281 364.355469 273.488281 L 399.339844 273.488281 C 406.484375 273.488281 412.277344 279.296875 412.277344 286.46875 L 412.277344 429.96875 "/>
<path style=" stroke:none;fill-rule:nonzero;fill:rgb(82.348633%,83.139038%,81.959534%);fill-opacity:1;" d="M 217.488281 333.027344 C 202.042969 333.027344 189.53125 331.488281 189.53125 329.59375 C 189.53125 327.691406 202.042969 326.15625 217.488281 326.15625 C 232.933594 326.15625 245.457031 327.691406 245.457031 329.59375 C 245.457031 331.488281 232.933594 333.027344 217.488281 333.027344 "/>
<path style=" stroke:none;fill-rule:nonzero;fill:rgb(82.348633%,83.139038%,81.959534%);fill-opacity:1;" d="M 217.488281 390.28125 C 202.042969 390.28125 189.53125 388.742188 189.53125 386.847656 C 189.53125 384.945312 202.042969 383.410156 217.488281 383.410156 C 232.933594 383.410156 245.457031 384.945312 245.457031 386.847656 C 245.457031 388.742188 232.933594 390.28125 217.488281 390.28125 "/>
<path style=" stroke:none;fill-rule:nonzero;fill:rgb(82.348633%,83.139038%,81.959534%);fill-opacity:1;" d="M 299.664062 333.027344 C 284.226562 333.027344 271.703125 331.488281 271.703125 329.59375 C 271.703125 327.691406 284.226562 326.15625 299.664062 326.15625 C 315.109375 326.15625 327.628906 327.691406 327.628906 329.59375 C 327.628906 331.488281 315.109375 333.027344 299.664062 333.027344 "/>
<path style=" stroke:none;fill-rule:nonzero;fill:rgb(82.348633%,83.139038%,81.959534%);fill-opacity:1;" d="M 299.664062 390.28125 C 284.226562 390.28125 271.703125 388.742188 271.703125 386.847656 C 271.703125 384.945312 284.226562 383.410156 299.664062 383.410156 C 315.109375 383.410156 327.628906 384.945312 327.628906 386.847656 C 327.628906 388.742188 315.109375 390.28125 299.664062 390.28125 "/>
<path style=" stroke:none;fill-rule:nonzero;fill:rgb(82.348633%,83.139038%,81.959534%);fill-opacity:1;" d="M 381.84375 333.027344 C 366.398438 333.027344 353.886719 331.488281 353.886719 329.59375 C 353.886719 327.691406 366.398438 326.15625 381.84375 326.15625 C 397.289062 326.15625 409.804688 327.691406 409.804688 329.59375 C 409.804688 331.488281 397.289062 333.027344 381.84375 333.027344 "/>
<path style=" stroke:none;fill-rule:nonzero;fill:rgb(82.348633%,83.139038%,81.959534%);fill-opacity:1;" d="M 381.84375 390.28125 C 366.398438 390.28125 353.886719 388.742188 353.886719 386.847656 C 353.886719 384.945312 366.398438 383.410156 381.84375 383.410156 C 397.289062 383.410156 409.804688 384.945312 409.804688 386.847656 C 409.804688 388.742188 397.289062 390.28125 381.84375 390.28125 "/>
<path style=" stroke:none;fill-rule:nonzero;fill:rgb(10.5896%,10.5896%,16.079712%);fill-opacity:1;" d="M 210.433594 376.175781 C 209.210938 373.050781 211.804688 371.273438 215.003906 371.269531 C 215.257812 367.613281 217.332031 355.769531 214.832031 352.527344 C 214.460938 352.050781 209.640625 349.195312 209.640625 351.011719 L 209.644531 347.367188 C 213.171875 346.664062 216.78125 344.40625 220.414062 344.839844 C 224.429688 345.320312 212.644531 371.9375 225.175781 372.21875 C 228.949219 372.304688 220.914062 376.496094 220.71875 376.546875 C 219.535156 376.886719 210.921875 377.359375 210.503906 376.347656 L 210.433594 376.175781 "/>
<path style=" stroke:none;fill-rule:nonzero;fill:rgb(10.5896%,10.5896%,16.079712%);fill-opacity:1;" d="M 292.46875 431.453125 C 290.058594 430.808594 294.585938 426.65625 297.066406 427.109375 C 297.414062 427.167969 297.15625 407.738281 296.988281 405.96875 C 295.953125 406.066406 294.152344 405.347656 293.121094 405.523438 C 294.019531 401.324219 298.789062 399.753906 302.71875 400.378906 C 302.601562 402.71875 303.582031 426.976562 302.726562 427.359375 C 306.703125 425.597656 309.25 429.261719 305.886719 431.910156 C 303.054688 434.128906 295.839844 432.1875 292.554688 431.472656 L 292.46875 431.453125 "/>
<path style=" stroke:none;fill-rule:nonzero;fill:rgb(10.5896%,10.5896%,16.079712%);fill-opacity:1;" d="M 376.277344 315.585938 C 375.691406 315.058594 375.308594 314.457031 375.199219 313.796875 C 383.109375 311.621094 384.78125 290.117188 374.042969 291.699219 C 373.414062 291.792969 376.839844 287.21875 377.394531 286.84375 C 379.414062 285.472656 382.542969 285.472656 384.832031 285.765625 C 384.851562 294.792969 384.832031 303.917969 384.847656 312.910156 C 388.46875 311.96875 390.519531 313.457031 389.644531 317.257812 C 389.140625 319.410156 379.574219 318.59375 376.277344 315.585938 "/>
<path style=" stroke:none;fill-rule:nonzero;fill:rgb(10.5896%,10.5896%,16.079712%);fill-opacity:1;" d="M 212.503906 301.277344 C 210.867188 314.398438 226.539062 312.195312 223.265625 299.265625 C 220.632812 288.90625 214.019531 291.433594 212.578125 300.769531 C 212.550781 300.941406 212.527344 301.109375 212.503906 301.277344 Z M 206.277344 301.164062 C 206.277344 295.859375 207.226562 291.84375 209.121094 289.121094 C 211.015625 286.402344 213.8125 285.042969 217.5 285.042969 C 221.175781 285.042969 223.964844 286.402344 225.859375 289.121094 C 227.757812 291.84375 228.707031 295.859375 228.707031 301.164062 C 228.707031 306.464844 227.757812 310.480469 225.859375 313.203125 C 223.964844 315.921875 221.175781 317.285156 217.5 317.285156 C 213.8125 317.285156 211.015625 315.921875 209.121094 313.203125 C 207.226562 310.480469 206.277344 306.464844 206.277344 301.164062 "/>
<path style=" stroke:none;fill-rule:nonzero;fill:rgb(10.5896%,10.5896%,16.079712%);fill-opacity:1;" d="M 376.171875 415.644531 C 376.175781 435.492188 391.746094 418.527344 386.050781 407.148438 C 385.09375 405.246094 383.703125 404.285156 381.855469 404.285156 C 379.992188 404.285156 378.582031 405.25 377.617188 407.183594 C 376.652344 409.113281 376.171875 411.925781 376.171875 415.644531 Z M 370.246094 415.617188 L 370.246094 415.574219 C 371.554688 405.117188 385.246094 398.527344 392.097656 408.042969 C 404.578125 425.375 368.953125 440.882812 370.246094 415.617188 "/>
<path style=" stroke:none;fill-rule:nonzero;fill:rgb(10.5896%,10.5896%,16.079712%);fill-opacity:1;" d="M 293.992188 360.238281 C 293.992188 363.929688 294.476562 366.730469 295.441406 368.648438 C 296.402344 370.5625 297.820312 371.519531 299.675781 371.519531 C 301.539062 371.519531 302.9375 370.574219 303.882812 368.667969 C 304.832031 366.769531 305.296875 363.957031 305.296875 360.238281 C 305.296875 356.496094 304.824219 353.664062 303.875 351.757812 C 302.921875 349.847656 301.519531 348.894531 299.675781 348.894531 C 297.820312 348.894531 296.402344 349.859375 295.441406 351.785156 C 294.476562 353.714844 293.992188 356.535156 293.992188 360.238281 Z M 286.96875 360.546875 C 285.988281 356.417969 286.636719 351.945312 290 347.996094 C 293.578125 343.777344 304.472656 343.066406 308.035156 348.199219 C 309.933594 350.921875 310.878906 354.933594 310.878906 360.242188 C 310.875 384.015625 290.175781 374.09375 286.96875 360.546875 "/>
<path style=" stroke:none;fill-rule:nonzero;fill:rgb(10.5896%,10.5896%,16.079712%);fill-opacity:1;" d="M 209.535156 429.367188 L 209.402344 429.140625 C 204.671875 419.375 225.339844 418.019531 221.308594 408.953125 C 219.65625 405.234375 207.402344 410.007812 207.441406 409.800781 C 209.957031 396.648438 231.078125 400.714844 226.308594 413.835938 C 224.089844 419.9375 216.609375 422.183594 212.730469 427.042969 C 215.09375 424.078125 227.210938 425.332031 227.15625 429.878906 C 227.09375 435.773438 211.878906 433.03125 209.535156 429.367188 "/>
<path style=" stroke:none;fill-rule:nonzero;fill:rgb(10.5896%,10.5896%,16.079712%);fill-opacity:1;" d="M 293.25 314.496094 C 289.992188 307.652344 308.746094 296.847656 300.605469 293.003906 C 297.210938 291.398438 293.914062 296.023438 289.894531 295.332031 C 289.648438 295.285156 296.351562 286.277344 301.492188 287.085938 C 307.441406 288.023438 310.855469 293.582031 308.773438 299.363281 C 306.5625 305.476562 299.046875 307.714844 295.167969 312.589844 C 299.925781 312.507812 304.691406 312.554688 309.441406 312.558594 C 309.75 313.5625 309.753906 316.214844 309.4375 317.273438 C 308.738281 319.640625 295.039062 316.925781 293.761719 315.320312 C 293.550781 315.054688 293.378906 314.777344 293.25 314.496094 "/>
<path style=" stroke:none;fill-rule:nonzero;fill:rgb(10.5896%,10.5896%,16.079712%);fill-opacity:1;" d="M 371.976562 376.183594 C 370.222656 369.570312 376.722656 366.871094 380.742188 363.257812 C 382.65625 361.535156 385.609375 359.761719 386.09375 356.929688 C 387.289062 349.957031 377.941406 348.257812 377.140625 355.351562 L 372.070312 354.410156 C 371.492188 354.300781 378.601562 345.617188 383.199219 346.132812 C 388.761719 346.757812 392.726562 351.605469 391.367188 357.28125 C 389.734375 364.125 381.429688 366.5625 377.355469 371.65625 C 378.488281 370.242188 394.34375 370.023438 392.046875 375.273438 C 390.078125 379.78125 375.269531 376.527344 372.015625 376.335938 L 371.976562 376.183594 "/>
</g>
</svg>
